<?xml version="1.0" encoding="utf-8"?>
<!-- Generator: Adobe Illustrator 26.2.1, SVG Export Plug-In . SVG Version: 6.00 Build 0)  -->
<svg version="1.1" id="Layer_1" xmlns="http://www.w3.org/2000/svg" xmlns:xlink="http://www.w3.org/1999/xlink" x="0px" y="0px"
	 viewBox="0 0 1920 1080" style="enable-background:new 0 0 1920 1080;" xml:space="preserve">
<style type="text/css">
	.st0{fill:none;}
	.st1{fill:#232020;}
	.st2{fill:#F8F8F8;}
	.st3{clip-path:url(#SVGID_00000166649083594658455380000008381208185912316317_);}
	.st4{fill:#010000;}
	.st5{fill:none;stroke:#010000;stroke-width:1.3;stroke-miterlimit:10;}
	.st6{fill:#005AFF;}
	.st7{fill:none;stroke:#010000;stroke-width:2;stroke-miterlimit:10;}
	
		.st8{clip-path:url(#SVGID_00000166649083594658455380000008381208185912316317_);fill:url(#SVGID_00000021081510613363795010000005887850504829942180_);}
	
		.st9{clip-path:url(#SVGID_00000166649083594658455380000008381208185912316317_);fill:url(#SVGID_00000141444249226911051090000003612145345297619334_);}
	
		.st10{clip-path:url(#SVGID_00000166649083594658455380000008381208185912316317_);fill:none;stroke:#005AFF;stroke-width:2.5;stroke-miterlimit:10;}
	.st11{clip-path:url(#SVGID_00000166649083594658455380000008381208185912316317_);fill:#005AFF;}
	.st12{fill:none;stroke:#005AFF;stroke-width:2.5;stroke-miterlimit:10;}
	.st13{fill:none;stroke:#3D3D3D;stroke-width:1.5;stroke-miterlimit:10;}
	.st14{fill:none;stroke:#3D3D3D;stroke-width:2;stroke-miterlimit:10;}
	.st15{fill:#005AFF;stroke:#3D3D3D;stroke-width:2;stroke-miterlimit:10;}
	.st16{fill:#3D3D3D;}
	.st17{clip-path:url(#SVGID_00000166649083594658455380000008381208185912316317_);fill:#3D3D3D;}
	
		.st18{clip-path:url(#SVGID_00000166649083594658455380000008381208185912316317_);fill:none;stroke:#005AFF;stroke-width:19;stroke-miterlimit:10;}
</style>
<pattern  width="48" height="48" patternUnits="userSpaceOnUse" id="_x36__dpi_20_x25_" viewBox="2.4 -50.4 48 48" style="overflow:visible;">
	<g>
		<rect x="2.4" y="-50.4" class="st0" width="48" height="48"/>
		<g>
			<path class="st1" d="M26.4,0c1.32,0,2.4-1.07,2.4-2.4c0-1.32-1.08-2.4-2.4-2.4c-1.33,0-2.4,1.08-2.4,2.4C24-1.07,25.07,0,26.4,0z
				"/>
			<path class="st1" d="M50.4,0c1.32,0,2.4-1.07,2.4-2.4c0-1.32-1.08-2.4-2.4-2.4c-1.33,0-2.4,1.08-2.4,2.4C48-1.07,49.07,0,50.4,0z
				"/>
			<path class="st1" d="M26.4-24c1.32,0,2.4-1.07,2.4-2.4c0-1.32-1.08-2.4-2.4-2.4c-1.33,0-2.4,1.08-2.4,2.4
				C24-25.07,25.07-24,26.4-24z"/>
			<path class="st1" d="M50.4-24c1.32,0,2.4-1.07,2.4-2.4c0-1.32-1.08-2.4-2.4-2.4c-1.33,0-2.4,1.08-2.4,2.4
				C48-25.07,49.07-24,50.4-24z"/>
			<path class="st1" d="M38.4-12c1.32,0,2.4-1.07,2.4-2.4c0-1.32-1.08-2.4-2.4-2.4c-1.33,0-2.4,1.08-2.4,2.4
				C36-13.07,37.07-12,38.4-12z"/>
			<path class="st1" d="M14.4-12c1.32,0,2.4-1.07,2.4-2.4c0-1.32-1.08-2.4-2.4-2.4c-1.33,0-2.4,1.08-2.4,2.4
				C12-13.07,13.07-12,14.4-12z"/>
			<path class="st1" d="M38.4-36c1.32,0,2.4-1.07,2.4-2.4c0-1.32-1.08-2.4-2.4-2.4c-1.33,0-2.4,1.08-2.4,2.4
				C36-37.07,37.07-36,38.4-36z"/>
			<path class="st1" d="M14.4-36c1.32,0,2.4-1.07,2.4-2.4c0-1.32-1.08-2.4-2.4-2.4c-1.33,0-2.4,1.08-2.4,2.4
				C12-37.07,13.07-36,14.4-36z"/>
		</g>
		<g>
			<path class="st1" d="M2.4,0c1.32,0,2.4-1.07,2.4-2.4c0-1.32-1.08-2.4-2.4-2.4C1.07-4.8,0-3.72,0-2.4C0-1.07,1.07,0,2.4,0z"/>
			<path class="st1" d="M2.4-24c1.32,0,2.4-1.07,2.4-2.4c0-1.32-1.08-2.4-2.4-2.4c-1.33,0-2.4,1.08-2.4,2.4C0-25.07,1.07-24,2.4-24z
				"/>
		</g>
		<g>
			<path class="st1" d="M26.4-48c1.32,0,2.4-1.07,2.4-2.4c0-1.32-1.08-2.4-2.4-2.4c-1.33,0-2.4,1.08-2.4,2.4
				C24-49.07,25.07-48,26.4-48z"/>
			<path class="st1" d="M50.4-48c1.32,0,2.4-1.07,2.4-2.4c0-1.32-1.08-2.4-2.4-2.4c-1.33,0-2.4,1.08-2.4,2.4
				C48-49.07,49.07-48,50.4-48z"/>
		</g>
		<g>
			<path class="st1" d="M2.4-48c1.32,0,2.4-1.07,2.4-2.4c0-1.32-1.08-2.4-2.4-2.4c-1.33,0-2.4,1.08-2.4,2.4C0-49.07,1.07-48,2.4-48z
				"/>
		</g>
	</g>
</pattern>
<rect class="st2" width="1920" height="1080"/>
<g>
	<g>
		<defs>
			<rect id="SVGID_1_" width="1920" height="1080"/>
		</defs>
		<clipPath id="SVGID_00000000202000895633696900000011494350351174342543_">
			<use xlink:href="#SVGID_1_"  style="overflow:visible;"/>
		</clipPath>
		<g style="clip-path:url(#SVGID_00000000202000895633696900000011494350351174342543_);">
			<g>
				<g>
					<g>
						<g>
							<path class="st4" d="M1330.61,892c-2.95,0-5.35-2.02-5.35-4.51c0-2.49,2.39-4.51,5.35-4.51c2.95,0,5.35,2.02,5.35,4.51
								C1335.95,889.98,1333.56,892,1330.61,892z"/>
							<path class="st4" d="M1330.61,930.79c-2.95,0-5.35-2.02-5.35-4.51s2.39-4.51,5.35-4.51c2.95,0,5.35,2.02,5.35,4.51
								S1333.56,930.79,1330.61,930.79z"/>
							<path class="st4" d="M1330.61,969.57c-2.95,0-5.35-2.02-5.35-4.51s2.39-4.51,5.35-4.51c2.95,0,5.35,2.02,5.35,4.51
								S1333.56,969.57,1330.61,969.57z"/>
							<path class="st4" d="M1330.61,1008.36c-2.95,0-5.35-2.02-5.35-4.51s2.39-4.51,5.35-4.51c2.95,0,5.35,2.02,5.35,4.51
								S1333.56,1008.36,1330.61,1008.36z"/>
						</g>
					</g>
				</g>
				<g>
					<g>
						<g>
							<path class="st4" d="M1330.61,1046.09c-2.95,0-5.35-2.02-5.35-4.51s2.39-4.51,5.35-4.51c2.95,0,5.35,2.02,5.35,4.51
								S1333.56,1046.09,1330.61,1046.09z"/>
							<path class="st4" d="M1330.61,1084.87c-2.95,0-5.35-2.02-5.35-4.51s2.39-4.51,5.35-4.51c2.95,0,5.35,2.02,5.35,4.51
								S1333.56,1084.87,1330.61,1084.87z"/>
							<path class="st4" d="M1330.61,1123.66c-2.95,0-5.35-2.02-5.35-4.51c0-2.49,2.39-4.51,5.35-4.51c2.95,0,5.35,2.02,5.35,4.51
								C1335.95,1121.64,1333.56,1123.66,1330.61,1123.66z"/>
							<path class="st4" d="M1330.61,1162.44c-2.95,0-5.35-2.02-5.35-4.51c0-2.49,2.39-4.51,5.35-4.51c2.95,0,5.35,2.02,5.35,4.51
								C1335.95,1160.42,1333.56,1162.44,1330.61,1162.44z"/>
						</g>
					</g>
				</g>
			</g>
			<g>
				<g>
					<g>
						<g>
							<path class="st4" d="M1276.85,892c-2.95,0-5.35-2.02-5.35-4.51c0-2.49,2.39-4.51,5.35-4.51c2.95,0,5.35,2.02,5.35,4.51
								C1282.19,889.98,1279.8,892,1276.85,892z"/>
							<path class="st4" d="M1276.85,930.79c-2.95,0-5.35-2.02-5.35-4.51s2.39-4.51,5.35-4.51c2.95,0,5.35,2.02,5.35,4.51
								S1279.8,930.79,1276.85,930.79z"/>
							<path class="st4" d="M1276.85,969.57c-2.95,0-5.35-2.02-5.35-4.51s2.39-4.51,5.35-4.51c2.95,0,5.35,2.02,5.35,4.51
								S1279.8,969.57,1276.85,969.57z"/>
							<path class="st4" d="M1276.85,1008.36c-2.95,0-5.35-2.02-5.35-4.51s2.39-4.51,5.35-4.51c2.95,0,5.35,2.02,5.35,4.51
								S1279.8,1008.36,1276.85,1008.36z"/>
						</g>
					</g>
				</g>
				<g>
					<g>
						<g>
							<path class="st4" d="M1276.85,1046.09c-2.95,0-5.35-2.02-5.35-4.51s2.39-4.51,5.35-4.51c2.95,0,5.35,2.02,5.35,4.51
								S1279.8,1046.09,1276.85,1046.09z"/>
							<path class="st4" d="M1276.85,1084.87c-2.95,0-5.35-2.02-5.35-4.51s2.39-4.51,5.35-4.51c2.95,0,5.35,2.02,5.35,4.51
								S1279.8,1084.87,1276.85,1084.87z"/>
							<path class="st4" d="M1276.85,1123.66c-2.95,0-5.35-2.02-5.35-4.51c0-2.49,2.39-4.51,5.35-4.51c2.95,0,5.35,2.02,5.35,4.51
								C1282.19,1121.64,1279.8,1123.66,1276.85,1123.66z"/>
							<path class="st4" d="M1276.85,1162.44c-2.95,0-5.35-2.02-5.35-4.51c0-2.49,2.39-4.51,5.35-4.51c2.95,0,5.35,2.02,5.35,4.51
								C1282.19,1160.42,1279.8,1162.44,1276.85,1162.44z"/>
						</g>
					</g>
				</g>
			</g>
		</g>
		<g style="clip-path:url(#SVGID_00000000202000895633696900000011494350351174342543_);">
			<rect x="64.33" y="619.82" class="st5" width="200.22" height="168.94"/>
			<polyline class="st5" points="64.33,788.76 139.91,852.53 341.94,852.53 341.94,682.9 264.55,619.82 			"/>
			<line class="st5" x1="264.55" y1="788.76" x2="341.04" y2="853.29"/>
		</g>
		<g style="clip-path:url(#SVGID_00000000202000895633696900000011494350351174342543_);">
			<g>
				<g>
					<g>
						<ellipse class="st6" cx="856.13" cy="100.86" rx="8.73" ry="7.37"/>
						<ellipse class="st6" cx="931.17" cy="100.86" rx="8.73" ry="7.37"/>
						<path class="st6" d="M1014.94,100.86c0,4.07-3.91,7.37-8.73,7.37c-4.82,0-8.73-3.3-8.73-7.37c0-4.07,3.91-7.37,8.73-7.37
							C1011.03,93.49,1014.94,96.79,1014.94,100.86z"/>
						<ellipse class="st6" cx="1081.24" cy="100.86" rx="8.73" ry="7.37"/>
					</g>
					<g>
						<ellipse class="st6" cx="856.13" cy="160.9" rx="8.73" ry="7.37"/>
						<ellipse class="st6" cx="931.17" cy="160.9" rx="8.73" ry="7.37"/>
						<path class="st6" d="M1014.94,160.9c0,4.07-3.91,7.37-8.73,7.37c-4.82,0-8.73-3.3-8.73-7.37c0-4.07,3.91-7.37,8.73-7.37
							C1011.03,153.54,1014.94,156.83,1014.94,160.9z"/>
						<ellipse class="st6" cx="1081.24" cy="160.9" rx="8.73" ry="7.37"/>
					</g>
				</g>
			</g>
			<g>
				
					<rect x="1131.64" y="-96.69" transform="matrix(-1 -1.224647e-16 1.224647e-16 -1 2442.906 -41.8256)" class="st5" width="179.63" height="151.56"/>
				<polyline class="st5" points="1311.27,54.87 1243.46,112.08 1062.21,112.08 1062.21,-40.11 1130.46,-97.69 				"/>
				<line class="st5" x1="1131.64" y1="54.87" x2="1063.02" y2="112.76"/>
			</g>
		</g>
		<g style="clip-path:url(#SVGID_00000000202000895633696900000011494350351174342543_);">
			<g>
				<polyline class="st7" points="1434.7,727.38 1460.55,739.38 1486.39,727.38 1512.24,739.38 1538.09,727.38 1563.94,739.38 
					1589.8,727.38 1615.65,739.38 1641.5,727.38 1667.36,739.38 1693.22,727.38 				"/>
			</g>
			<g>
				<polyline class="st7" points="1434.7,761.8 1460.55,773.8 1486.39,761.8 1512.24,773.8 1538.09,761.8 1563.94,773.8 
					1589.8,761.8 1615.65,773.8 1641.5,761.8 1667.36,773.8 1693.22,761.8 				"/>
			</g>
		</g>
		<g style="clip-path:url(#SVGID_00000000202000895633696900000011494350351174342543_);">
			<g>
				<polyline class="st7" points="381.03,-1.21 409.57,10.79 438.1,-1.21 466.64,10.79 495.18,-1.21 523.72,10.79 552.26,-1.21 
					580.8,10.79 609.35,-1.21 637.89,10.79 666.44,-1.21 				"/>
			</g>
			<g>
				<polyline class="st7" points="381.03,36.79 409.57,48.79 438.1,36.79 466.64,48.79 495.18,36.79 523.72,48.79 552.26,36.79 
					580.8,48.79 609.35,36.79 637.89,48.79 666.44,36.79 				"/>
			</g>
		</g>
		<g style="clip-path:url(#SVGID_00000000202000895633696900000011494350351174342543_);">
			<g>
				<g>
					<g>
						<path class="st4" d="M-25.2,118.49c0,4.19-4.03,7.59-8.99,7.59c-4.97,0-8.99-3.4-8.99-7.59c0-4.19,4.03-7.59,8.99-7.59
							C-29.23,110.9-25.2,114.3-25.2,118.49z"/>
						<path class="st4" d="M52.07,118.49c0,4.19-4.03,7.59-8.99,7.59s-8.99-3.4-8.99-7.59c0-4.19,4.03-7.59,8.99-7.59
							S52.07,114.3,52.07,118.49z"/>
						<path class="st4" d="M129.35,118.49c0,4.19-4.03,7.59-8.99,7.59s-8.99-3.4-8.99-7.59c0-4.19,4.03-7.59,8.99-7.59
							S129.35,114.3,129.35,118.49z"/>
						<path class="st4" d="M206.62,118.49c0,4.19-4.03,7.59-8.99,7.59c-4.97,0-8.99-3.4-8.99-7.59c0-4.19,4.03-7.59,8.99-7.59
							C202.59,110.9,206.62,114.3,206.62,118.49z"/>
					</g>
					<g>
						<path class="st4" d="M-25.2,180.32c0,4.19-4.03,7.59-8.99,7.59c-4.97,0-8.99-3.4-8.99-7.59c0-4.19,4.03-7.59,8.99-7.59
							C-29.23,172.74-25.2,176.13-25.2,180.32z"/>
						<path class="st4" d="M52.07,180.32c0,4.19-4.03,7.59-8.99,7.59s-8.99-3.4-8.99-7.59c0-4.19,4.03-7.59,8.99-7.59
							S52.07,176.13,52.07,180.32z"/>
						<path class="st4" d="M129.35,180.32c0,4.19-4.03,7.59-8.99,7.59s-8.99-3.4-8.99-7.59c0-4.19,4.03-7.59,8.99-7.59
							S129.35,176.13,129.35,180.32z"/>
						<path class="st4" d="M206.62,180.32c0,4.19-4.03,7.59-8.99,7.59c-4.97,0-8.99-3.4-8.99-7.59c0-4.19,4.03-7.59,8.99-7.59
							C202.59,172.74,206.62,176.13,206.62,180.32z"/>
					</g>
					<g>
						<path class="st4" d="M-25.2,242.16c0,4.19-4.03,7.59-8.99,7.59c-4.97,0-8.99-3.4-8.99-7.59c0-4.19,4.03-7.59,8.99-7.59
							C-29.23,234.57-25.2,237.97-25.2,242.16z"/>
						<path class="st4" d="M52.07,242.16c0,4.19-4.03,7.59-8.99,7.59s-8.99-3.4-8.99-7.59c0-4.19,4.03-7.59,8.99-7.59
							S52.07,237.97,52.07,242.16z"/>
						<path class="st4" d="M129.35,242.16c0,4.19-4.03,7.59-8.99,7.59s-8.99-3.4-8.99-7.59c0-4.19,4.03-7.59,8.99-7.59
							S129.35,237.97,129.35,242.16z"/>
						<path class="st4" d="M206.62,242.16c0,4.19-4.03,7.59-8.99,7.59c-4.97,0-8.99-3.4-8.99-7.59c0-4.19,4.03-7.59,8.99-7.59
							C202.59,234.57,206.62,237.97,206.62,242.16z"/>
					</g>
					<g>
						<path class="st4" d="M-25.2,303.99c0,4.19-4.03,7.59-8.99,7.59c-4.97,0-8.99-3.4-8.99-7.59s4.03-7.59,8.99-7.59
							C-29.23,296.4-25.2,299.8-25.2,303.99z"/>
						<path class="st4" d="M52.07,303.99c0,4.19-4.03,7.59-8.99,7.59s-8.99-3.4-8.99-7.59s4.03-7.59,8.99-7.59
							S52.07,299.8,52.07,303.99z"/>
						<path class="st4" d="M129.35,303.99c0,4.19-4.03,7.59-8.99,7.59s-8.99-3.4-8.99-7.59s4.03-7.59,8.99-7.59
							S129.35,299.8,129.35,303.99z"/>
						<path class="st4" d="M206.62,303.99c0,4.19-4.03,7.59-8.99,7.59c-4.97,0-8.99-3.4-8.99-7.59s4.03-7.59,8.99-7.59
							C202.59,296.4,206.62,299.8,206.62,303.99z"/>
					</g>
				</g>
			</g>
			<g>
				<g>
					<g>
						<path class="st4" d="M-25.2-122.19c0,4.19-4.03,7.59-8.99,7.59c-4.97,0-8.99-3.4-8.99-7.59c0-4.19,4.03-7.59,8.99-7.59
							C-29.23-129.78-25.2-126.38-25.2-122.19z"/>
						<path class="st4" d="M52.07-122.19c0,4.19-4.03,7.59-8.99,7.59s-8.99-3.4-8.99-7.59c0-4.19,4.03-7.59,8.99-7.59
							S52.07-126.38,52.07-122.19z"/>
						<path class="st4" d="M129.35-122.19c0,4.19-4.03,7.59-8.99,7.59s-8.99-3.4-8.99-7.59c0-4.19,4.03-7.59,8.99-7.59
							S129.35-126.38,129.35-122.19z"/>
						<path class="st4" d="M206.62-122.19c0,4.19-4.03,7.59-8.99,7.59c-4.97,0-8.99-3.4-8.99-7.59c0-4.19,4.03-7.59,8.99-7.59
							C202.59-129.78,206.62-126.38,206.62-122.19z"/>
					</g>
					<g>
						<path class="st4" d="M-25.2-60.36c0,4.19-4.03,7.59-8.99,7.59c-4.97,0-8.99-3.4-8.99-7.59c0-4.19,4.03-7.59,8.99-7.59
							C-29.23-67.95-25.2-64.55-25.2-60.36z"/>
						<path class="st4" d="M52.07-60.36c0,4.19-4.03,7.59-8.99,7.59s-8.99-3.4-8.99-7.59c0-4.19,4.03-7.59,8.99-7.59
							S52.07-64.55,52.07-60.36z"/>
						<path class="st4" d="M129.35-60.36c0,4.19-4.03,7.59-8.99,7.59s-8.99-3.4-8.99-7.59c0-4.19,4.03-7.59,8.99-7.59
							S129.35-64.55,129.35-60.36z"/>
						<path class="st4" d="M206.62-60.36c0,4.19-4.03,7.59-8.99,7.59c-4.97,0-8.99-3.4-8.99-7.59c0-4.19,4.03-7.59,8.99-7.59
							C202.59-67.95,206.62-64.55,206.62-60.36z"/>
					</g>
					<g>
						<path class="st4" d="M-25.2,1.47c0,4.19-4.03,7.59-8.99,7.59c-4.97,0-8.99-3.4-8.99-7.59c0-4.19,4.03-7.59,8.99-7.59
							C-29.23-6.11-25.2-2.72-25.2,1.47z"/>
						<path class="st4" d="M52.07,1.47c0,4.19-4.03,7.59-8.99,7.59s-8.99-3.4-8.99-7.59c0-4.19,4.03-7.59,8.99-7.59
							S52.07-2.72,52.07,1.47z"/>
						<path class="st4" d="M129.35,1.47c0,4.19-4.03,7.59-8.99,7.59s-8.99-3.4-8.99-7.59c0-4.19,4.03-7.59,8.99-7.59
							S129.35-2.72,129.35,1.47z"/>
						<path class="st4" d="M206.62,1.47c0,4.19-4.03,7.59-8.99,7.59c-4.97,0-8.99-3.4-8.99-7.59c0-4.19,4.03-7.59,8.99-7.59
							C202.59-6.11,206.62-2.72,206.62,1.47z"/>
					</g>
					<g>
						<path class="st4" d="M-25.2,63.31c0,4.19-4.03,7.59-8.99,7.59c-4.97,0-8.99-3.4-8.99-7.59c0-4.19,4.03-7.59,8.99-7.59
							C-29.23,55.72-25.2,59.12-25.2,63.31z"/>
						<path class="st4" d="M52.07,63.31c0,4.19-4.03,7.59-8.99,7.59s-8.99-3.4-8.99-7.59c0-4.19,4.03-7.59,8.99-7.59
							S52.07,59.12,52.07,63.31z"/>
						<path class="st4" d="M129.35,63.31c0,4.19-4.03,7.59-8.99,7.59s-8.99-3.4-8.99-7.59c0-4.19,4.03-7.59,8.99-7.59
							S129.35,59.12,129.35,63.31z"/>
						<path class="st4" d="M206.62,63.31c0,4.19-4.03,7.59-8.99,7.59c-4.97,0-8.99-3.4-8.99-7.59c0-4.19,4.03-7.59,8.99-7.59
							C202.59,55.72,206.62,59.12,206.62,63.31z"/>
					</g>
				</g>
			</g>
			<ellipse class="st6" cx="232.62" cy="315.9" rx="140.16" ry="118.26"/>
		</g>
		
			<pattern  id="SVGID_00000021106874533193802540000015882975858585337519_" xlink:href="#_x36__dpi_20_x25_" patternTransform="matrix(0.9833 0 0 0.9833 35.317 -103.3184)">
		</pattern>
		
			<ellipse style="clip-path:url(#SVGID_00000000202000895633696900000011494350351174342543_);fill:url(#SVGID_00000021106874533193802540000015882975858585337519_);" cx="1792.5" cy="104.11" rx="276.72" ry="233.48"/>
		
			<pattern  id="SVGID_00000138574179113212102630000010552228165815763882_" xlink:href="#_x36__dpi_20_x25_" patternTransform="matrix(0.4625 -0.8677 0.8677 0.4625 1895.2649 -9961.3281)">
		</pattern>
		
			<ellipse style="clip-path:url(#SVGID_00000000202000895633696900000011494350351174342543_);fill:url(#SVGID_00000138574179113212102630000010552228165815763882_);" cx="190.4" cy="1180.95" rx="276.72" ry="233.48"/>
		
			<path style="clip-path:url(#SVGID_00000000202000895633696900000011494350351174342543_);fill:none;stroke:#005AFF;stroke-width:2.5;stroke-miterlimit:10;" d="
			M1433.05,227.1c0-69.02,66.31-124.97,148.11-124.97c81.8,0,148.11,55.95,148.11,124.97s-66.31,124.97-148.11,124.97"/>
		<g style="clip-path:url(#SVGID_00000000202000895633696900000011494350351174342543_);">
			<g>
				<path d="M547.59,160.92l-18.73,15.8l19.05,16.07l-17.86,15.07l-19.05-16.07l-18.73,15.8l-16.99-14.34l18.73-15.8l-19.16-16.16
					l17.86-15.07l19.16,16.16l18.73-15.8L547.59,160.92z"/>
			</g>
		</g>
		<g style="clip-path:url(#SVGID_00000000202000895633696900000011494350351174342543_);">
			<g>
				<path d="M1956.21,493.06l-18.73,15.8l19.05,16.07L1938.67,540l-19.05-16.07l-18.73,15.8l-16.99-14.34l18.73-15.8l-19.16-16.16
					l17.86-15.07l19.16,16.16l18.73-15.8L1956.21,493.06z"/>
			</g>
		</g>
		
			<rect x="-221.71" y="797.5" style="clip-path:url(#SVGID_00000000202000895633696900000011494350351174342543_);fill:#005AFF;" width="330.79" height="374.91"/>
		<g style="clip-path:url(#SVGID_00000000202000895633696900000011494350351174342543_);">
			<path class="st12" d="M818.78,924.06c0,38.62-37.1,69.93-82.87,69.93c-45.77,0-82.87-31.31-82.87-69.93
				c0-38.62,37.1-69.93,82.87-69.93"/>
			<g>
				<line class="st13" x1="503.99" y1="964.13" x2="542.93" y2="931.27"/>
				<line class="st13" x1="537.93" y1="964.13" x2="576.88" y2="931.27"/>
				<line class="st13" x1="571.88" y1="964.13" x2="610.82" y2="931.27"/>
				<line class="st13" x1="605.83" y1="964.13" x2="644.77" y2="931.27"/>
				<line class="st13" x1="639.78" y1="964.13" x2="678.72" y2="931.27"/>
				<line class="st13" x1="673.73" y1="964.13" x2="712.67" y2="931.27"/>
				<line class="st13" x1="707.68" y1="964.13" x2="746.62" y2="931.27"/>
			</g>
		</g>
		<g style="clip-path:url(#SVGID_00000000202000895633696900000011494350351174342543_);">
			<g>
				<ellipse class="st14" cx="1852.3" cy="1100.35" rx="208.69" ry="176.08"/>
				<ellipse class="st14" cx="1852.3" cy="1100.35" rx="280.82" ry="236.95"/>
				<path class="st15" d="M1852.3,1306.86c-134.96,0-244.76-92.64-244.76-206.51s109.8-206.51,244.76-206.51
					c134.96,0,244.75,92.64,244.75,206.51S1987.26,1306.86,1852.3,1306.86z"/>
				<ellipse class="st15" cx="1852.3" cy="1100.35" rx="208.69" ry="176.08"/>
				<ellipse class="st15" cx="1852.3" cy="1100.35" rx="169.98" ry="143.42"/>
				<ellipse class="st15" cx="1852.3" cy="1100.35" rx="134.53" ry="113.51"/>
			</g>
			<ellipse class="st16" cx="1604.95" cy="958.39" rx="72.75" ry="61.38"/>
		</g>
		
			<rect x="-77.9" y="498.74" style="clip-path:url(#SVGID_00000000202000895633696900000011494350351174342543_);fill:#3D3D3D;" width="168.59" height="20.88"/>
		
			<rect x="116.3" y="498.74" style="clip-path:url(#SVGID_00000000202000895633696900000011494350351174342543_);fill:#3D3D3D;" width="27.06" height="20.88"/>
		<g style="clip-path:url(#SVGID_00000000202000895633696900000011494350351174342543_);">
			<rect x="1845.3" y="619.07" class="st6" width="194.93" height="22.05"/>
			<rect x="1751.3" y="619.07" class="st6" width="54.96" height="22.05"/>
		</g>
		
			<rect x="319.91" y="836.6" style="clip-path:url(#SVGID_00000000202000895633696900000011494350351174342543_);fill:#005AFF;" width="54.96" height="46.37"/>
		
			<rect x="1775.91" style="clip-path:url(#SVGID_00000000202000895633696900000011494350351174342543_);fill:#005AFF;" width="217.23" height="101.6"/>
		
			<ellipse style="clip-path:url(#SVGID_00000000202000895633696900000011494350351174342543_);fill:none;stroke:#005AFF;stroke-width:19;stroke-miterlimit:10;" cx="1043.74" cy="1105.98" rx="112.48" ry="94.9"/>
	</g>
</g>
</svg>
