<svg width="8" height="14" viewBox="0 0 8 14" fill="none" xmlns="http://www.w3.org/2000/svg">
<path d="M7.378 9.326C7.378 9.774 7.266 10.2033 7.042 10.614C6.818 11.0153 6.48667 11.3513 6.048 11.622C5.61867 11.8927 5.10067 12.0467 4.494 12.084V13.218H3.738V12.084C2.88867 12.0093 2.198 11.7387 1.666 11.272C1.134 10.796 0.863333 10.194 0.854 9.466H2.212C2.24933 9.858 2.394 10.1987 2.646 10.488C2.90733 10.7773 3.27133 10.9593 3.738 11.034V7.534C3.11267 7.37533 2.60867 7.212 2.226 7.044C1.84333 6.876 1.51667 6.61467 1.246 6.26C0.975333 5.90533 0.84 5.42933 0.84 4.832C0.84 4.076 1.10133 3.45067 1.624 2.956C2.156 2.46133 2.86067 2.186 3.738 2.13V0.967999H4.494V2.13C5.28733 2.19533 5.92667 2.452 6.412 2.9C6.89733 3.33867 7.17733 3.91267 7.252 4.622H5.894C5.84733 4.29533 5.70267 4.00133 5.46 3.74C5.21733 3.46933 4.89533 3.292 4.494 3.208V6.624C5.11 6.78267 5.60933 6.946 5.992 7.114C6.384 7.27267 6.71067 7.52933 6.972 7.884C7.24267 8.23867 7.378 8.71933 7.378 9.326ZM2.142 4.762C2.142 5.21933 2.27733 5.56933 2.548 5.812C2.81867 6.05467 3.21533 6.25533 3.738 6.414V3.18C3.25267 3.22667 2.86533 3.38533 2.576 3.656C2.28667 3.91733 2.142 4.286 2.142 4.762ZM4.494 11.048C4.998 10.992 5.39 10.81 5.67 10.502C5.95933 10.194 6.104 9.82533 6.104 9.396C6.104 8.93867 5.964 8.58867 5.684 8.346C5.404 8.094 5.00733 7.89333 4.494 7.744V11.048Z" fill="white"/>
</svg>
